# xmcd
#
# Track frame offsets:
#	150
#	15660
#	34612
#	51286
#	70260
#	85661
#	101700
#	117107
#	131497
#	147355
#	160404
#	174589
#	187689
#	199999
#	211910
#	226347
#	242575
#	256622
#	272410
#	286847
#	302283
#
# Disc length: 4224 seconds
#
# Revision: 1
# Processed by: cddbd v1.5.2PL0 Copyright (c) Steve Scherf et al.
# Submitted via: EZCDAudioConverter 7.1.0.1
#
DISCID=14107e15
DTITLE=Nu Country Traxx Volume 240 US
DYEAR=2019
DGENRE=country
TTITLE0=Blake Shelton - God's Country
TTITLE1=Brad Paisley - My Miracle
TTITLE2=Scotty McCreery - In Between
TTITLE3=Brooks and Dunn with LANCO - Mama Dont Get Dressed Up For Nothing
TTITLE4=Dustin Lynch - Ridin' Roads
TTITLE5=Caroline Jones - Chasin' Me
TTITLE6=Rachel Wammack - Enough
TTITLE7=Abby Anderson - Good Lord
TTITLE8=Caylee Hammack - Family Tree
TTITLE9=Filmore - Slower
TTITLE10=Kolt Barber - Cowboy
TTITLE11=Marty Brown - Umbrella Lovers
TTITLE12=Arlene Quinn - Jackpot
TTITLE13=Amy Jack - If Not For Friends
TTITLE14=Rachel Steele - Classic
TTITLE15=The Ashley Sisters - Sweet On You
TTITLE16=Kira Isabella ft. Levi Hummon - We Should Be Together
TTITLE17=Wes Mack ft. Sons of Daughters - Never Have I Ever
TTITLE18=George Canyon - Out Of This Town
TTITLE19=Dave Hartney - Everything Girl
TTITLE20=Samara Yung - Swerve
EXTD=
EXTT0=
EXTT1=
EXTT2=
EXTT3=
EXTT4=
EXTT5=
EXTT6=
EXTT7=
EXTT8=
EXTT9=
EXTT10=
EXTT11=
EXTT12=
EXTT13=
EXTT14=
EXTT15=
EXTT16=
EXTT17=
EXTT18=
EXTT19=
EXTT20=
PLAYORDER=
